<svg xmlns="http://www.w3.org/2000/svg" xmlns:xlink="http://www.w3.org/1999/xlink" width="230" height="160" viewBox="0 0 230 160">
  <defs>
    <clipPath id="clip-path">
      <rect id="Rectangle_26" data-name="Rectangle 26" width="230" height="160" transform="translate(503 2689)" fill="none"/>
    </clipPath>
  </defs>
  <g id="Mask_Group_7" data-name="Mask Group 7" transform="translate(-503 -2689)" clip-path="url(#clip-path)">
    <g id="Group_302" data-name="Group 302" transform="translate(362.899 2471.323)">
      <g id="Group_304" data-name="Group 304" transform="translate(185.101 331.353)">
        <g id="Group_303" data-name="Group 303">
          <path id="Path_706" data-name="Path 706" d="M192.428,788.4a14.8,14.8,0,0,1-3.523-.352,5.09,5.09,0,0,1-2.255-1.128,4.226,4.226,0,0,1-1.2-2.029,11.564,11.564,0,0,1-.352-3.086v-6.03a11.6,11.6,0,0,1,.352-3.072,4.233,4.233,0,0,1,1.2-2.043,5.1,5.1,0,0,1,2.255-1.127,14.834,14.834,0,0,1,3.523-.352h4.734v3.635h-4.734a6.189,6.189,0,0,0-1.522.155,2.1,2.1,0,0,0-.944.493,1.744,1.744,0,0,0-.479.9,6.577,6.577,0,0,0-.127,1.41v1.3h16.373v3.41H189.356v1.353a6.727,6.727,0,0,0,.127,1.437,1.8,1.8,0,0,0,.465.9,1.825,1.825,0,0,0,.944.465,7.727,7.727,0,0,0,1.536.126h13.414V788.4Z" transform="translate(-185.101 -768.198)" fill="#fff"/>
          <path id="Path_707" data-name="Path 707" d="M324.4,783.545V763.34h4.284v20.205Z" transform="translate(-300.901 -763.34)" fill="#fff"/>
          <path id="Path_708" data-name="Path 708" d="M372.862,801.755v.7a4.526,4.526,0,0,0,.112,1.127,1.23,1.23,0,0,0,.409.662,1.683,1.683,0,0,0,.789.324,7.426,7.426,0,0,0,1.226.084h4.96v3.184H375.4q-3.635,0-5.185-1.381a5.647,5.647,0,0,1-1.55-4.424v-3.522a10.411,10.411,0,0,1,.324-2.8,3.664,3.664,0,0,1,1.127-1.831,4.935,4.935,0,0,1,2.128-1,15.094,15.094,0,0,1,3.353-.31h7.383a10.09,10.09,0,0,1,2.719.31,4.477,4.477,0,0,1,1.719.859,2.934,2.934,0,0,1,.888,1.325,5.366,5.366,0,0,1,.253,1.677v5.016Zm11.5-4.678a1.141,1.141,0,0,0-.381-1.015,2.557,2.557,0,0,0-1.339-.254h-6.988a10.442,10.442,0,0,0-1.325.071,1.735,1.735,0,0,0-.859.324,1.392,1.392,0,0,0-.465.733,4.749,4.749,0,0,0-.141,1.3v.817h11.5Z" transform="translate(-337.693 -787.637)" fill="#fff"/>
          <path id="Path_709" data-name="Path 709" d="M511.116,807.979a14.845,14.845,0,0,1-3.522-.352,5.1,5.1,0,0,1-2.254-1.125,4.222,4.222,0,0,1-1.2-2.025,11.523,11.523,0,0,1-.352-3.08v-2.054a11.678,11.678,0,0,1,.352-3.093,4.229,4.229,0,0,1,1.2-2.04,5.1,5.1,0,0,1,2.254-1.125,14.854,14.854,0,0,1,3.522-.352h11.047v3.579H511.257a7.734,7.734,0,0,0-1.62.141,2.054,2.054,0,0,0-1,.491,1.879,1.879,0,0,0-.507.969,7.064,7.064,0,0,0-.141,1.544v1.8a6.712,6.712,0,0,0,.141,1.5,1.952,1.952,0,0,0,.507.968,2.074,2.074,0,0,0,1,.52,7.018,7.018,0,0,0,1.62.155h10.934v3.579Z" transform="translate(-450.021 -787.774)" fill="#fff"/>
          <path id="Path_710" data-name="Path 710" d="M625.526,786.6V774.735h-2.142v-3.41h2.142v-4.311h4.283v4.311h4.819v3.41h-4.819V786.6Z" transform="translate(-549.439 -766.394)" fill="#fff"/>
          <path id="Path_711" data-name="Path 711" d="M702.051,807.842v-8.849a9.515,9.515,0,0,1,.4-2.931,4.47,4.47,0,0,1,1.254-1.986,5.321,5.321,0,0,1,2.212-1.142,12.8,12.8,0,0,1,3.3-.366h2.734v3.41h-2.621a6.467,6.467,0,0,0-1.465.141,2.005,2.005,0,0,0-.944.479,1.932,1.932,0,0,0-.507.93,6.006,6.006,0,0,0-.155,1.493v8.82Z" transform="translate(-614.833 -787.637)" fill="#fff"/>
          <path id="Path_712" data-name="Path 712" d="M779.53,807.979a14.845,14.845,0,0,1-3.522-.352,5.1,5.1,0,0,1-2.255-1.125,4.227,4.227,0,0,1-1.2-2.025,11.518,11.518,0,0,1-.352-3.08v-2.054a11.673,11.673,0,0,1,.352-3.093,4.233,4.233,0,0,1,1.2-2.04,5.108,5.108,0,0,1,2.255-1.125,14.853,14.853,0,0,1,3.522-.352h5.1a15.007,15.007,0,0,1,3.551.352,5.022,5.022,0,0,1,2.254,1.139,4.319,4.319,0,0,1,1.2,2.053,11.718,11.718,0,0,1,.352,3.094V801.4a11.552,11.552,0,0,1-.352,3.08,4.227,4.227,0,0,1-1.2,2.025,5.1,5.1,0,0,1-2.254,1.125,15,15,0,0,1-3.551.352Zm8.257-8.522a6.624,6.624,0,0,0-.155-1.572,1.821,1.821,0,0,0-.563-.969,2.334,2.334,0,0,0-1.141-.478,11.338,11.338,0,0,0-1.86-.126h-3.973a11.059,11.059,0,0,0-1.846.126,2.313,2.313,0,0,0-1.127.478,1.812,1.812,0,0,0-.564.969,6.607,6.607,0,0,0-.155,1.572v1.8a6.425,6.425,0,0,0,.155,1.559,1.8,1.8,0,0,0,.564.955,2.4,2.4,0,0,0,1.127.491,9.894,9.894,0,0,0,1.846.141h3.973a10.142,10.142,0,0,0,1.86-.141,2.417,2.417,0,0,0,1.141-.491,1.813,1.813,0,0,0,.563-.955,6.442,6.442,0,0,0,.155-1.559Z" transform="translate(-673.15 -787.774)" fill="#fff"/>
          <path id="Path_713" data-name="Path 713" d="M924.647,803.784a7.814,7.814,0,0,1-.2,1.9,2.325,2.325,0,0,1-.776,1.254,3.609,3.609,0,0,1-1.581.69,13.064,13.064,0,0,1-2.611.211H906.33v-3.3h12.6a1.879,1.879,0,0,0,1.183-.282,1.348,1.348,0,0,0,.339-1.071v-.507q0-.845-.325-1.057a2.074,2.074,0,0,0-1.084-.211h-8.567a7.134,7.134,0,0,1-2.1-.254,2.729,2.729,0,0,1-1.254-.761,2.655,2.655,0,0,1-.606-1.254,8.791,8.791,0,0,1-.154-1.762v-1.155a5.962,5.962,0,0,1,.211-1.691,2.468,2.468,0,0,1,.691-1.141,2.9,2.9,0,0,1,1.3-.634,8.987,8.987,0,0,1,2.057-.2h5.8v3.185h-4.79a1.379,1.379,0,0,0-.888.225,1.026,1.026,0,0,0-.268.817v.7a1.152,1.152,0,0,0,.254.873,1.217,1.217,0,0,0,.819.226h8.3a9.925,9.925,0,0,1,2.4.24,3.208,3.208,0,0,1,1.467.761,2.714,2.714,0,0,1,.735,1.353,8.987,8.987,0,0,1,.2,2.043Z" transform="translate(-784.647 -787.637)" fill="#fff"/>
        </g>
      </g>
      <path id="Path_714" data-name="Path 714" d="M440.265,274.444l-5.712,2.923a34.149,34.149,0,0,1-2.854,21.758h0a34.248,34.248,0,0,1-27.614,18.953c0-.044.012-6.227.012-6.271a27.77,27.77,0,0,0,6.214-1.41v.024a28.044,28.044,0,0,0,12.815-9.252h0a28.008,28.008,0,0,0,3.245-5.3h0a27.615,27.615,0,0,0,1.809-5.123l-18.452.01a11.417,11.417,0,0,1-19.459-11.8c4.821-9.659,18.786-7.779,21.3,2.349H405.6a5.352,5.352,0,1,0,0,5.5h11.584a16.943,16.943,0,0,0-16.605-19.682c-15.658,0-22.55,18.639-11.941,29.025a16.892,16.892,0,0,0,23.56.111h6.7c-11.959,17.45-39.488,9.038-39.488-12.213a21.631,21.631,0,1,1,43.222,1.33h6.328a27.915,27.915,0,0,0-1.77-11.22l11.106-5.683a40.376,40.376,0,0,0-65.912-12.841l5.475,3.342a34.138,34.138,0,0,1,52.05,6.812c-.023.012-5.55,2.84-5.572,2.852a28.146,28.146,0,0,0-4.1-4.879l.013-.007a27.921,27.921,0,0,0-41.287,3.172l-10.647-6.5a40.3,40.3,0,0,0-4.524,39.2h0a40.323,40.323,0,0,0,2.84,5.525h0a40.5,40.5,0,0,0,25.021,18.178l.012-6.42a34.312,34.312,0,0,1-19.486-14.6h0a34.108,34.108,0,0,1-1.79-33.337l5.346,3.265a27.746,27.746,0,0,0-2.018,6.045l-.024-.015a27.986,27.986,0,0,0,1.206,15.673h0a28.025,28.025,0,0,0,22.987,17.885c-.013,7.655-.008,4.818-.023,12.476a40.367,40.367,0,0,0,35.914-16.629h0a40.28,40.28,0,0,0,3.243-5.3h0A40.326,40.326,0,0,0,440.265,274.444Z" transform="translate(-145.941 0)" fill="#fff"/>
    </g>
  </g>
</svg>
