<svg xmlns="http://www.w3.org/2000/svg" xmlns:xlink="http://www.w3.org/1999/xlink" width="180" height="180" viewBox="0 0 180 180">
  <defs>
    <clipPath id="clip-path">
      <rect id="Rectangle_22" data-name="Rectangle 22" width="180" height="180" transform="translate(410 1960)" fill="#fff" stroke="#707070" stroke-width="1"/>
    </clipPath>
    <linearGradient id="linear-gradient" x1="-3.952" y1="-0.032" x2="-3.364" y2="0.84" gradientUnits="objectBoundingBox">
      <stop offset="0" stop-color="#1b5060"/>
      <stop offset="0.066" stop-color="#5e929e"/>
      <stop offset="0.076" stop-color="#4d9ab5"/>
      <stop offset="0.094" stop-color="#36a5d4"/>
      <stop offset="0.111" stop-color="#26aeeb"/>
      <stop offset="0.127" stop-color="#1cb3f9"/>
      <stop offset="0.141" stop-color="#19b5fe"/>
      <stop offset="0.182" stop-color="#32befe"/>
      <stop offset="0.244" stop-color="#51cafe"/>
      <stop offset="0.303" stop-color="#68d3fe"/>
      <stop offset="0.36" stop-color="#76d8fe"/>
      <stop offset="0.409" stop-color="#7bdaff"/>
      <stop offset="0.466" stop-color="#63ccf5"/>
      <stop offset="0.562" stop-color="#41b9e8"/>
      <stop offset="0.653" stop-color="#29acdf"/>
      <stop offset="0.738" stop-color="#1ba3d9"/>
      <stop offset="0.808" stop-color="#16a1d8"/>
    </linearGradient>
    <linearGradient id="linear-gradient-2" x1="-4.591" y1="-0.1" x2="-3.887" y2="0.878" gradientUnits="objectBoundingBox">
      <stop offset="0.056" stop-color="#19b5fe"/>
      <stop offset="0.109" stop-color="#32befe"/>
      <stop offset="0.19" stop-color="#51cafe"/>
      <stop offset="0.269" stop-color="#68d3fe"/>
      <stop offset="0.344" stop-color="#76d8fe"/>
      <stop offset="0.409" stop-color="#7bdaff"/>
      <stop offset="0.466" stop-color="#63ccf5"/>
      <stop offset="0.562" stop-color="#41b9e8"/>
      <stop offset="0.653" stop-color="#29acdf"/>
      <stop offset="0.738" stop-color="#1ba3d9"/>
      <stop offset="0.808" stop-color="#16a1d8"/>
    </linearGradient>
    <linearGradient id="linear-gradient-3" x1="-4.85" y1="-0.172" x2="-4.105" y2="1.309" gradientUnits="objectBoundingBox">
      <stop offset="0.01" stop-color="#19b5fe"/>
      <stop offset="0.103" stop-color="#1fb7fe"/>
      <stop offset="0.231" stop-color="#30bdfe"/>
      <stop offset="0.379" stop-color="#4dc8fe"/>
      <stop offset="0.541" stop-color="#75d7fe"/>
      <stop offset="0.561" stop-color="#7bdaff"/>
      <stop offset="0.783" stop-color="#45bbea"/>
      <stop offset="1" stop-color="#16a1d8"/>
    </linearGradient>
    <radialGradient id="radial-gradient" cx="0.776" cy="-0.111" r="0.438" gradientTransform="matrix(-4.562, 0, 0, 1, -188.733, 0)" gradientUnits="objectBoundingBox">
      <stop offset="0" stop-color="#b3edff"/>
      <stop offset="0.056" stop-color="#9dd5e6"/>
      <stop offset="0.177" stop-color="#74a8b7"/>
      <stop offset="0.303" stop-color="#50828f"/>
      <stop offset="0.43" stop-color="#33626e"/>
      <stop offset="0.561" stop-color="#1d4a55"/>
      <stop offset="0.696" stop-color="#0d3843"/>
      <stop offset="0.839" stop-color="#042e38"/>
      <stop offset="1" stop-color="#012b35"/>
    </radialGradient>
    <linearGradient id="linear-gradient-4" x1="-4.935" y1="-0.074" x2="-4.241" y2="0.867" xlink:href="#linear-gradient-2"/>
    <linearGradient id="linear-gradient-5" x1="-6.307" y1="-0.269" x2="-5.431" y2="1.439" xlink:href="#linear-gradient-3"/>
    <radialGradient id="radial-gradient-2" cx="0.131" cy="0.355" r="0.588" gradientTransform="matrix(-1.375, 0, 0, 1, -10.674, 0)" gradientUnits="objectBoundingBox">
      <stop offset="0.364" stop-color="#fff"/>
      <stop offset="0.425" stop-color="#e2e7e8"/>
      <stop offset="0.639" stop-color="#83979c"/>
      <stop offset="0.813" stop-color="#3c5d64"/>
      <stop offset="0.937" stop-color="#113842"/>
      <stop offset="1" stop-color="#012b35"/>
    </radialGradient>
    <linearGradient id="linear-gradient-6" x1="-5.09" y1="0.024" x2="-4.448" y2="1.078" gradientUnits="objectBoundingBox">
      <stop offset="0" stop-color="#b3edff"/>
      <stop offset="0.13" stop-color="#8edbf6"/>
      <stop offset="0.308" stop-color="#63c6eb"/>
      <stop offset="0.48" stop-color="#41b6e2"/>
      <stop offset="0.643" stop-color="#29aadc"/>
      <stop offset="0.794" stop-color="#1ba3d9"/>
      <stop offset="0.919" stop-color="#16a1d8"/>
    </linearGradient>
    <radialGradient id="radial-gradient-3" cx="0.164" cy="0.996" r="0.482" gradientTransform="matrix(-1.375, 0, 0, 1, -10.814, 0)" gradientUnits="objectBoundingBox">
      <stop offset="0" stop-color="#2e3192"/>
      <stop offset="1" stop-color="#012b35"/>
    </radialGradient>
    <radialGradient id="radial-gradient-4" cx="0.164" cy="0.996" r="0.417" gradientTransform="matrix(-1.587, 0, 0, 1, -22.76, 0)" gradientUnits="objectBoundingBox">
      <stop offset="0" stop-color="#00dbff"/>
      <stop offset="1" stop-color="#012b35"/>
    </radialGradient>
  </defs>
  <g id="Mask_Group_4" data-name="Mask Group 4" transform="translate(-410 -1960)" clip-path="url(#clip-path)">
    <ellipse id="Ellipse_58" data-name="Ellipse 58" cx="45.5" cy="13.5" rx="45.5" ry="13.5" transform="translate(465.407 2117.528) rotate(-22)" opacity="0.3"/>
    <g id="Group_22" data-name="Group 22" transform="translate(-198.066 2367.631)">
      <g id="Group_20" data-name="Group 20" transform="translate(633.066 -407.631)" opacity="0.8">
        <path id="Path_13" data-name="Path 13" d="M633.781-346.528c18.738-10.635,37.058-27.747,52.411-48.946l.209-.119c15.354,3.454,33.673-.6,52.41-11.616l.717-.423,24.289,13.884-11.363,7.484c-3.555,47.457-22.066,86.419-51.857,132.546l-.724.421c-5.354-2.105,2.757,2.746-1.847.147-.2-.113-27.436-15.234-27.636-15.347-20.661-11.867-33.424-30.071-36.312-65.293l-1.011-12.331Z" transform="translate(-633.066 407.631)" opacity="0.3" fill="url(#linear-gradient)"/>
        <path id="Path_14" data-name="Path 14" d="M633.763-346.343c18.285-10.667,36.162-27.831,51.143-49.093l.2-.119c14.983,3.465,32.859-.6,51.143-11.651l.7-.424,2.629,1.666-.7.42c-18.284,11.048-36.161,15.118-51.143,11.653l-.2.118c-14.984,21.263-32.86,38.426-51.143,49.094l-.7.408.987,12.369c2.642,33.121,13.753,51.239,31.747,63.181-19.537-11.916-31.607-30.144-34.375-64.845l-.986-12.368Z" transform="translate(-633.066 407.631)" fill="url(#linear-gradient-2)"/>
        <path id="Path_15" data-name="Path 15" d="M633.763-347.314c18.285-10.371,36.162-27.057,51.143-47.728l.2-.116c.1.023.2.04.3.062L736.227-365.8,660.89-331.246l-27.824-15.672Z" transform="translate(-633.066 406.897)" opacity="0.3" fill="url(#linear-gradient-3)"/>
        <path id="Path_16" data-name="Path 16" d="M741.981-393.1l.492-11.319c.655-.367,1.31-.725,1.966-1.111l.7-.409-.985,13.163c-1.8,24-7.536,45.777-16.687,67.455A210.573,210.573,0,0,0,741.981-393.1Z" transform="translate(-636.064 407.532)" fill="url(#radial-gradient)" style="mix-blend-mode: screen;isolation: isolate"/>
      </g>
      <g id="Group_21" data-name="Group 21" transform="translate(651.87 -396.558)">
        <path id="Path_17" data-name="Path 17" d="M654.5-334.643c18.936-10.658,37.45-27.8,52.965-49.043l.21-.12c15.516,3.461,34.031-.6,52.965-11.639l.723-.422,4.358,2.534-11.483,7.5c-3.593,47.55-22.3,86.588-52.406,132.806l-.732.422c-5.411-2.109,2.787,2.751-1.867.147-.2-.113-7.539-3.887-7.738-4-20.883-11.889-33.778-30.131-36.7-65.42l-1.022-12.357Z" transform="translate(-653.778 395.866)" fill="url(#linear-gradient-4)"/>
        <path id="Path_18" data-name="Path 18" d="M654.476-335.549c18.285-10.373,36.162-27.058,51.143-47.729l.2-.117c.1.023.2.04.3.061l31.324,18.224-75.336,34.556-8.33-4.6Z" transform="translate(-653.778 395.132)" fill="url(#linear-gradient-5)"/>
      </g>
      <path id="Path_19" data-name="Path 19" d="M657.684-332.862c18.284-10.653,36.16-27.79,51.143-49.02l.2-.12c14.983,3.461,32.858-.6,51.145-11.633l.7-.42-.985,13.519c-3.471,47.53-21.532,86.549-50.605,132.746l-.708.42c-29.07-11.72-47.132-29.319-50.6-72.735l-.987-12.35Z" transform="translate(1.754 -0.799)" fill="url(#radial-gradient-2)" style="mix-blend-mode: screen;isolation: isolate"/>
      <path id="Path_20" data-name="Path 20" d="M659.116-332.291c18.285-10.652,36.161-27.789,51.144-49.017l.2-.12c14.983,3.459,32.858-.6,51.143-11.635l.7-.42-.986,13.519c-3.471,47.529-21.533,86.549-50.6,132.746l-.707.42c-29.073-11.72-47.134-29.318-50.6-72.734l-.986-12.35Z" transform="translate(1.67 -0.832)" fill="url(#linear-gradient-6)"/>
      <path id="Path_21" data-name="Path 21" d="M659.116-332.291c18.285-10.652,36.161-27.789,51.144-49.017l.2-.12c14.983,3.459,32.858-.6,51.143-11.635l.7-.42-.986,13.519c-3.471,47.529-21.533,86.549-50.6,132.746l-.707.42c-29.073-11.72-47.134-29.318-50.6-72.734l-.986-12.35Z" transform="translate(1.67 -0.832)" fill="url(#radial-gradient-3)" style="mix-blend-mode: color-dodge;isolation: isolate"/>
      <path id="Path_22" data-name="Path 22" d="M659.116-330.213c.306-.171.611-.361.915-.537l.978,11.914c3.454,42.079,21.375,59.249,50.217,70.664-.171.264-.339.525-.51.792l-.707.408c-29.073-11.412-47.134-28.546-50.6-70.818l-.986-12.024Z" transform="translate(-0.485 -0.659)" fill="url(#radial-gradient-4)" style="mix-blend-mode: color-dodge;isolation: isolate"/>
      <path id="Path_23" data-name="Path 23" d="M708.515-258.706c26.131-40.313,44.125-76.71,47.529-121.461l.215-2.831c-11.919,5.633-23.721,8.575-34.564,8.575a57.621,57.621,0,0,1-8.512-.623c-14.423,18.978-31.079,34.278-48.459,44.51l.695,8.335C668.607-283.894,684.214-268.915,708.515-258.706Z" transform="translate(1.299 4.198)" fill="#16a1d8"/>
    </g>
  </g>
</svg>
