<svg xmlns="http://www.w3.org/2000/svg" xmlns:xlink="http://www.w3.org/1999/xlink" width="230" height="160" viewBox="0 0 230 160">
  <defs>
    <clipPath id="clip-path">
      <rect id="Rectangle_26" data-name="Rectangle 26" width="230" height="160" transform="translate(503 2689)" fill="none"/>
    </clipPath>
    <linearGradient id="linear-gradient" x1="0.148" y1="0.706" x2="0.652" y2="0.152" gradientUnits="objectBoundingBox">
      <stop offset="0" stop-color="#9e9e9e"/>
      <stop offset="0.945" stop-color="#c8c8c8"/>
    </linearGradient>
    <radialGradient id="radial-gradient" cx="1.025" cy="-0.259" r="0.675" gradientTransform="translate(0.075) scale(0.85 1)" gradientUnits="objectBoundingBox">
      <stop offset="0" stop-color="#fff"/>
      <stop offset="0.14" stop-color="silver"/>
      <stop offset="0.305" stop-color="#7d7d7d"/>
      <stop offset="0.454" stop-color="#494949"/>
      <stop offset="0.583" stop-color="#222"/>
      <stop offset="0.686" stop-color="#0b0b0b"/>
      <stop offset="0.75" stop-color="#fff"/>
    </radialGradient>
    <radialGradient id="radial-gradient-2" cx="0.732" cy="1.325" r="1.153" xlink:href="#radial-gradient"/>
    <radialGradient id="radial-gradient-3" cx="0.072" cy="-0.583" r="1.196" xlink:href="#radial-gradient"/>
    <linearGradient id="linear-gradient-2" x1="0.519" y1="-0.02" x2="0.483" y2="1.019" gradientUnits="objectBoundingBox">
      <stop offset="0" stop-color="#c1c1c1"/>
      <stop offset="1" stop-color="#848484"/>
    </linearGradient>
    <radialGradient id="radial-gradient-4" cx="1.254" cy="0.412" r="0.714" gradientTransform="translate(0.118) scale(0.764 1)" xlink:href="#radial-gradient"/>
    <radialGradient id="radial-gradient-5" cx="0.39" cy="1.119" r="0.521" gradientTransform="translate(0.118) scale(0.764 1)" xlink:href="#radial-gradient"/>
  </defs>
  <g id="Mask_Group_7" data-name="Mask Group 7" transform="translate(-503 -2689)" clip-path="url(#clip-path)">
    <g id="Group_538" data-name="Group 538" transform="translate(450.96 2609.203)">
      <g id="Group_543" data-name="Group 543" transform="translate(97.04 105.797)">
        <path id="Path_1013" data-name="Path 1013" d="M221.684,142.635l-79.3,58.185c-.166.124-.332.244-.5.363-9.912,7.007-20.239,6.764-25.581,1.592a10.47,10.47,0,0,1-1.084-1.219c-.005,0-.005,0-.01-.005-2.116-2.718-3.081-6.437-2.386-10.949l1.209-7.806-7.78-1.935,8.382-1.919,13.2-3.019c.752,2.713,3.657,4.17,7.4,3.325,4.689-1.063,8.76-5.3,9.067-9.367.3-3.978-3.133-6.292-7.64-5.239a12.669,12.669,0,0,0-8.273,6.66l-13.034,3.008,2.033-13.076,31.339-7.417,10.467,6.561a7.655,7.655,0,0,0-1.006,3.371c-.14,3.989,3.584,6.416,8.351,5.327,4.782-1.089,8.631-5.265,8.579-9.243-.047-3.885-3.817-6.094-8.413-5.021a11.907,11.907,0,0,0-3.714,1.592l-7.059-4.289,28.626-6.774c1.224,2.381,4.461,3.579,8.2,2.7,4.689-1.094,8.231-4.984,7.889-8.61-.322-3.543-4.248-5.482-8.75-4.4-3.584.861-6.535,3.4-7.505,6.188l-66.355,15.825L97.04,162.049l21.676-9.43.581-3.76,45.561-11.027,5.814-5.887a9.365,9.365,0,0,0,3.491-.213c4.331-1.053,7.754-4.57,7.64-7.78-.114-3.148-3.594-4.808-7.765-3.766-4.149,1.032-7.542,4.383-7.588,7.547a3.828,3.828,0,0,0,.783,2.407l-4.336,4.341-43,10.477,1.582-10.171L140.754,130c.762,2.038,3.4,3.008,6.7,2.2,4.144-1.022,7.645-4.43,7.8-7.547.15-3.06-2.977-4.678-6.971-3.672a11.232,11.232,0,0,0-7.189,5.467l-19.061,4.761L116.3,132.64l6.146-4.092.871-5.628c1.473-9.476,15.649-18.574,26.079-16.93l68.237,10.757a19.37,19.37,0,0,1,3.242.788C231.969,121.286,233.421,134.025,221.684,142.635Z" transform="translate(-97.04 -105.797)" fill="url(#linear-gradient)"/>
        <g id="Group_542" data-name="Group 542" transform="translate(16.547 1.703)">
          <path id="Path_1014" data-name="Path 1014" d="M141.992,206.441c-4.11,0-7.587-1.417-9.791-3.99-2.156-2.516-2.965-5.976-2.341-10l1.451-9.351-2.368-.588,13.242-3.029a7.049,7.049,0,0,0,6.345,3.293,11.038,11.038,0,0,0,2.429-.283c5.368-1.216,10.028-6.106,10.388-10.9a6.575,6.575,0,0,0-1.67-5.107,7.433,7.433,0,0,0-5.556-2.213,11,11,0,0,0-2.492.3,14.329,14.329,0,0,0-9.048,6.84l-9.808,2.264,1.467-9.461,29.539-6.989,8.6,5.391a8.614,8.614,0,0,0-.536,2.658,6.73,6.73,0,0,0,1.864,5.042,8.146,8.146,0,0,0,5.964,2.314,11.717,11.717,0,0,0,2.6-.3c5.523-1.259,9.968-6.161,9.907-10.928-.052-4.107-3.28-6.975-7.85-6.975a11.669,11.669,0,0,0-2.653.316,13.356,13.356,0,0,0-3.316,1.27l-2.644-1.608,23.442-5.546a8.3,8.3,0,0,0,6.558,2.763,12.279,12.279,0,0,0,2.787-.332c5.484-1.286,9.609-5.965,9.2-10.43-.34-3.676-3.629-6.243-8-6.243a12.232,12.232,0,0,0-2.849.346,12.464,12.464,0,0,0-8.349,6.394L130.759,157.5l4.849-2.108.553-3.565,44.924-10.873,5.592-5.659q.25.012.5.012a11.617,11.617,0,0,0,2.745-.341c5.157-1.257,9.082-5.427,8.935-9.494-.121-3.367-3.02-5.719-7.05-5.719a11.723,11.723,0,0,0-2.824.359c-4.923,1.226-8.823,5.257-8.878,9.179a5.637,5.637,0,0,0,.379,2.131l-3.1,3.1-40.059,9.765,1.013-6.538,16.941-4.2a6.538,6.538,0,0,0,5.289,2.225,11.1,11.1,0,0,0,2.645-.336c4.9-1.209,8.9-5.213,9.093-9.116a5.094,5.094,0,0,0-1.383-3.865,6.782,6.782,0,0,0-5.006-1.892,11.1,11.1,0,0,0-2.7.349,13.146,13.146,0,0,0-7.915,5.655l-15.847,3.958.893-5.757c1.182-7.622,12.409-15.683,21.843-15.683a14.781,14.781,0,0,1,2.289.173l68.238,10.754c5.544.874,9.475,3.949,10.514,8.227,1.2,4.952-1.491,10.413-7.207,14.608l-79.3,58.184c-4.758,3.491-9.995,5.415-14.743,5.415Z" transform="translate(-128.943 -109.08)" fill="url(#radial-gradient)" style="mix-blend-mode: color-dodge;isolation: isolate"/>
          <path id="Path_1015" data-name="Path 1015" d="M141.992,206.441c-4.11,0-7.587-1.417-9.791-3.99-2.156-2.516-2.965-5.976-2.341-10l1.451-9.351-2.368-.588,13.242-3.029a7.049,7.049,0,0,0,6.345,3.293,11.038,11.038,0,0,0,2.429-.283c5.368-1.216,10.028-6.106,10.388-10.9a6.575,6.575,0,0,0-1.67-5.107,7.433,7.433,0,0,0-5.556-2.213,11,11,0,0,0-2.492.3,14.329,14.329,0,0,0-9.048,6.84l-9.808,2.264,1.467-9.461,29.539-6.989,8.6,5.391a8.614,8.614,0,0,0-.536,2.658,6.73,6.73,0,0,0,1.864,5.042,8.146,8.146,0,0,0,5.964,2.314,11.717,11.717,0,0,0,2.6-.3c5.523-1.259,9.968-6.161,9.907-10.928-.052-4.107-3.28-6.975-7.85-6.975a11.669,11.669,0,0,0-2.653.316,13.356,13.356,0,0,0-3.316,1.27l-2.644-1.608,23.442-5.546a8.3,8.3,0,0,0,6.558,2.763,12.279,12.279,0,0,0,2.787-.332c5.484-1.286,9.609-5.965,9.2-10.43-.34-3.676-3.629-6.243-8-6.243a12.232,12.232,0,0,0-2.849.346,12.464,12.464,0,0,0-8.349,6.394L130.759,157.5l4.849-2.108.553-3.565,44.924-10.873,5.592-5.659q.25.012.5.012a11.617,11.617,0,0,0,2.745-.341c5.157-1.257,9.082-5.427,8.935-9.494-.121-3.367-3.02-5.719-7.05-5.719a11.723,11.723,0,0,0-2.824.359c-4.923,1.226-8.823,5.257-8.878,9.179a5.637,5.637,0,0,0,.379,2.131l-3.1,3.1-40.059,9.765,1.013-6.538,16.941-4.2a6.538,6.538,0,0,0,5.289,2.225,11.1,11.1,0,0,0,2.645-.336c4.9-1.209,8.9-5.213,9.093-9.116a5.094,5.094,0,0,0-1.383-3.865,6.782,6.782,0,0,0-5.006-1.892,11.1,11.1,0,0,0-2.7.349,13.146,13.146,0,0,0-7.915,5.655l-15.847,3.958.893-5.757c1.182-7.622,12.409-15.683,21.843-15.683a14.781,14.781,0,0,1,2.289.173l68.238,10.754c5.544.874,9.475,3.949,10.514,8.227,1.2,4.952-1.491,10.413-7.207,14.608l-79.3,58.184c-4.758,3.491-9.995,5.415-14.743,5.415Z" transform="translate(-128.943 -109.08)" fill="url(#radial-gradient-2)" style="mix-blend-mode: color-dodge;isolation: isolate"/>
          <path id="Path_1016" data-name="Path 1016" d="M141.992,206.441c-4.11,0-7.587-1.417-9.791-3.99-2.156-2.516-2.965-5.976-2.341-10l1.451-9.351-2.368-.588,13.242-3.029a7.049,7.049,0,0,0,6.345,3.293,11.038,11.038,0,0,0,2.429-.283c5.368-1.216,10.028-6.106,10.388-10.9a6.575,6.575,0,0,0-1.67-5.107,7.433,7.433,0,0,0-5.556-2.213,11,11,0,0,0-2.492.3,14.329,14.329,0,0,0-9.048,6.84l-9.808,2.264,1.467-9.461,29.539-6.989,8.6,5.391a8.614,8.614,0,0,0-.536,2.658,6.73,6.73,0,0,0,1.864,5.042,8.146,8.146,0,0,0,5.964,2.314,11.717,11.717,0,0,0,2.6-.3c5.523-1.259,9.968-6.161,9.907-10.928-.052-4.107-3.28-6.975-7.85-6.975a11.669,11.669,0,0,0-2.653.316,13.356,13.356,0,0,0-3.316,1.27l-2.644-1.608,23.442-5.546a8.3,8.3,0,0,0,6.558,2.763,12.279,12.279,0,0,0,2.787-.332c5.484-1.286,9.609-5.965,9.2-10.43-.34-3.676-3.629-6.243-8-6.243a12.232,12.232,0,0,0-2.849.346,12.464,12.464,0,0,0-8.349,6.394L130.759,157.5l4.849-2.108.553-3.565,44.924-10.873,5.592-5.659q.25.012.5.012a11.617,11.617,0,0,0,2.745-.341c5.157-1.257,9.082-5.427,8.935-9.494-.121-3.367-3.02-5.719-7.05-5.719a11.723,11.723,0,0,0-2.824.359c-4.923,1.226-8.823,5.257-8.878,9.179a5.637,5.637,0,0,0,.379,2.131l-3.1,3.1-40.059,9.765,1.013-6.538,16.941-4.2a6.538,6.538,0,0,0,5.289,2.225,11.1,11.1,0,0,0,2.645-.336c4.9-1.209,8.9-5.213,9.093-9.116a5.094,5.094,0,0,0-1.383-3.865,6.782,6.782,0,0,0-5.006-1.892,11.1,11.1,0,0,0-2.7.349,13.146,13.146,0,0,0-7.915,5.655l-15.847,3.958.893-5.757c1.182-7.622,12.409-15.683,21.843-15.683a14.781,14.781,0,0,1,2.289.173l68.238,10.754c5.544.874,9.475,3.949,10.514,8.227,1.2,4.952-1.491,10.413-7.207,14.608l-79.3,58.184c-4.758,3.491-9.995,5.415-14.743,5.415Z" transform="translate(-128.943 -109.08)" fill="url(#radial-gradient-3)" style="mix-blend-mode: color-dodge;isolation: isolate"/>
        </g>
        <path id="Path_1017" data-name="Path 1017" d="M253.8,146.937h-.01c-.43,4.232-3.008,8.735-8.024,12.474L166.36,218.6c-7.848,5.846-16.053,7.038-21.919,4.756-5.8-2.044-10.078-7.842-12.37-10.918.005.005.005.005.01.005a10.468,10.468,0,0,0,1.084,1.219c5.342,5.171,15.669,5.415,25.581-1.592.171-.119.337-.239.5-.363l79.3-58.185c11.738-8.61,10.285-21.349-.8-25.1v-.005c3.262.809,9.575,4.59,13.268,9.575a11.533,11.533,0,0,1,2.707,5.726A9.555,9.555,0,0,1,253.8,146.937Z" transform="translate(-113.901 -116.686)" fill="url(#linear-gradient-2)"/>
        <path id="Path_1018" data-name="Path 1018" d="M157.5,230.627a15.174,15.174,0,0,1-5.525-.98,17.294,17.294,0,0,1-5.426-3.3,19.288,19.288,0,0,0,3.919.393c5.323,0,10.906-1.958,16.146-5.663.178-.124.359-.254.539-.39l79.282-58.175c6.343-4.653,9.582-10.985,8.661-16.936q-.085-.55-.214-1.082a21.687,21.687,0,0,1,1.846,2.162l.036.048.039.046a9.919,9.919,0,0,1,2.347,4.958,8.463,8.463,0,0,1,.158,1.952l-.092.853c-.417,4.091-3.046,8.134-7.406,11.384L172.4,225.094C167.607,228.662,162.315,230.627,157.5,230.627Z" transform="translate(-120.868 -124.424)" fill="url(#radial-gradient-4)" style="mix-blend-mode: color-dodge;isolation: isolate"/>
      </g>
      <g id="Group_544" data-name="Group 544" transform="translate(122.718 125.87)" style="mix-blend-mode: color-dodge;isolation: isolate">
        <path id="Path_1019" data-name="Path 1019" d="M157.5,230.627a15.174,15.174,0,0,1-5.525-.98,17.294,17.294,0,0,1-5.426-3.3,19.288,19.288,0,0,0,3.919.393c5.323,0,10.906-1.958,16.146-5.663.178-.124.359-.254.539-.39l79.282-58.175c6.343-4.653,9.582-10.985,8.661-16.936q-.085-.55-.214-1.082a21.687,21.687,0,0,1,1.846,2.162l.036.048.039.046a9.919,9.919,0,0,1,2.347,4.958,8.463,8.463,0,0,1,.158,1.952l-.092.853c-.417,4.091-3.046,8.134-7.406,11.384L172.4,225.094C167.607,228.662,162.315,230.627,157.5,230.627Z" transform="translate(-146.546 -144.498)" fill="url(#radial-gradient-5)"/>
      </g>
    </g>
  </g>
</svg>
