<svg xmlns="http://www.w3.org/2000/svg" xmlns:xlink="http://www.w3.org/1999/xlink" width="180" height="180" viewBox="0 0 180 180">
  <defs>
    <clipPath id="clip-path">
      <rect id="Rectangle_22" data-name="Rectangle 22" width="180" height="180" transform="translate(410 1960)" fill="#fff" stroke="#707070" stroke-width="1"/>
    </clipPath>
    <linearGradient id="linear-gradient" x1="1.504" y1="1.308" x2="0.393" y2="0.414" gradientUnits="objectBoundingBox">
      <stop offset="0" stop-color="#1a2766" stop-opacity="0"/>
      <stop offset="0.093" stop-color="#182f6e" stop-opacity="0.055"/>
      <stop offset="0.271" stop-color="#144485" stop-opacity="0.208"/>
      <stop offset="0.515" stop-color="#0e66aa" stop-opacity="0.447"/>
      <stop offset="0.812" stop-color="#0594dc" stop-opacity="0.776"/>
      <stop offset="1" stop-color="#00b4ff"/>
    </linearGradient>
  </defs>
  <g id="Mask_Group_4" data-name="Mask Group 4" transform="translate(-410 -1960)" clip-path="url(#clip-path)">
    <ellipse id="Ellipse_59" data-name="Ellipse 59" cx="59" cy="35" rx="59" ry="35" transform="translate(441 2060)" opacity="0.3"/>
    <g id="Group_300" data-name="Group 300" transform="translate(415.464 1967.691)">
      <g id="Group_295" data-name="Group 295" transform="translate(119.65 15.915)">
        <g id="Group_292" data-name="Group 292" transform="translate(0 15.095)" opacity="0.8">
          <path id="Path_663" data-name="Path 663" d="M1197.6,277.822a3.5,3.5,0,0,1-.783-.649l15.612-5.1,3.521,6.579a9.3,9.3,0,0,0,3.359,3.669,3.092,3.092,0,0,0,3.359.21l3.518-2.472,15.513,23.051a1.818,1.818,0,0,1-.738-.251L1197.6,277.822m-1.6-1.916a3.653,3.653,0,0,1-.328-1.429l.09-31.422a1.384,1.384,0,0,1,.5-1.182l15.477,28.892-15.735,5.141m46.545,26.916-15.655-23.263,15.628-10.976a3.881,3.881,0,0,1,.478,1.744l-.089,31.422a1.493,1.493,0,0,1-.362,1.074m-23.23-21.71a7.23,7.23,0,0,1-2.576-2.814l-19.591-36.574.057.011a2.348,2.348,0,0,1,.5.2l43.361,25.034a3.913,3.913,0,0,1,.51.382l.046.05-19.734,13.869a2.371,2.371,0,0,1-2.574-.16m21.754-15.345L1197.7,240.731a3.8,3.8,0,0,0-.614-.278l-.076-.012a1.791,1.791,0,0,0-.5-.1h-.018c-1.05-.073-1.781.712-1.786,2.112l-.089,31.422a6.575,6.575,0,0,0,2.976,5.155l43.362,25.034c1.654.955,2.99.183,3-1.707l.089-31.422a6.582,6.582,0,0,0-1.758-4.158l-.029-.026a4.523,4.523,0,0,0-.49-.469l-.086-.081a5.035,5.035,0,0,0-.614-.43" transform="translate(-1194.619 -240.333)" fill="#00b4ff"/>
        </g>
        <g id="Group_293" data-name="Group 293" transform="translate(0.044)">
          <path id="Path_664" data-name="Path 664" d="M1242.478,252.982l-46.291-26.726c-.841-.485-1.523-.1-1.526.87a3.341,3.341,0,0,0,1.516,2.638l46.29,26.726c.841.485,1.524.1,1.527-.881a3.34,3.34,0,0,0-1.516-2.626" transform="translate(-1194.661 -226.047)" fill="url(#linear-gradient)"/>
        </g>
        <g id="Group_294" data-name="Group 294" transform="translate(0.044)">
          <path id="Path_665" data-name="Path 665" d="M1220.2,240.118l-24.01-13.862c-.841-.485-1.523-.1-1.526.87a3.341,3.341,0,0,0,1.516,2.638l24.009,13.862c.841.486,1.524.1,1.527-.88a3.345,3.345,0,0,0-1.516-2.627" transform="translate(-1194.661 -226.047)" fill="#00b4ff"/>
        </g>
      </g>
      <g id="Group_298" data-name="Group 298" transform="translate(32.433 0)">
        <g id="Group_296" data-name="Group 296" transform="translate(0 95.331)" opacity="0.3">
          <path id="Path_666" data-name="Path 666" d="M1199.6,309.913c-20.112-11.612-52.624-11.617-72.6-.005s-19.866,30.443.246,42.056,52.613,11.611,72.6,0S1219.711,321.525,1199.6,309.913Z" transform="translate(-1112.082 -301.202)" fill="#00b4ff"/>
        </g>
        <path id="Path_667" data-name="Path 667" d="M1199.6,288.4c-20.112-24.47-52.624-24.482-72.6-.011-9.991,12.236-14.958,28.274-14.912,44.314h0c.045,7.61,5.1,15.222,15.158,21.027,20.112,11.611,52.613,11.611,72.6,0,9.99-5.806,14.959-13.415,14.917-21.024h0C1214.708,316.669,1209.654,300.633,1199.6,288.4Z" transform="translate(-1112.082 -207.638)" fill="#00b4ff" opacity="0.5"/>
        <path id="Path_668" data-name="Path 668" d="M1195.49,244.418a5.1,5.1,0,0,0-1.95-2.806c-2.221-18.438-17.257-32.012-33.693-30.513-18.635,1.7-28.955,11.74-28.953,31.6,0,.827.033,1.646.081,2.461-.139,2.872-.31,5.759-.228,8.661.476,16.8,3.949,32.267,19.308,36.519,7.923,2.194,13.1,2.158,20.805-.33,8.53-2.756,12.356-11.739,14.083-18.734a31.081,31.081,0,0,0,6.076-9.513,6.972,6.972,0,0,0,3.214-3.48C1194.953,256.532,1196.3,247.25,1195.49,244.418Zm-3.656-3.554-.049-.01Zm-3.448.826c-.039.033-.074.074-.112.11C1188.312,241.764,1188.347,241.724,1188.386,241.69Zm1.657-.821c-.042.011-.084.023-.127.035C1189.958,240.893,1190,240.88,1190.043,240.869Zm-.813.285c-.045.021-.093.039-.137.063C1189.138,241.194,1189.185,241.176,1189.23,241.155Zm-1.456,1.2c-.051.067-.1.134-.149.2C1187.672,242.483,1187.723,242.416,1187.774,242.35Zm-1.8,23.664v0Z" transform="translate(-1111.025 -210.986)" fill="#00b4ff" opacity="0.5"/>
        <g id="Group_297" data-name="Group 297" transform="translate(19.87)">
          <path id="Path_669" data-name="Path 669" d="M1131.463,236.7a1.99,1.99,0,0,1,2.769-1.766,54.452,54.452,0,0,0,16.374,3.642c9.8.864,23.056-1.986,27.528-5.755,3.913-3.3,3.979,10.8,4.535,16.9.172,1.892,4.406,1.989,4.38-.135-.03-2.446.093-6.167.093-6.167a4.13,4.13,0,0,1,6.39-1.8c-2.221-18.438-17.257-32.012-33.693-30.513-18.635,1.7-28.955,11.74-28.953,31.6,0,.827.033,1.646.081,2.462C1131.1,242.328,1131.286,239.509,1131.463,236.7Z" transform="translate(-1130.886 -210.986)" fill="#00b4ff" opacity="0.5"/>
          <path id="Path_670" data-name="Path 670" d="M1183.242,261.922a55.616,55.616,0,0,1-1.207,6.629,31.081,31.081,0,0,0,6.076-9.513,10.929,10.929,0,0,1-3.218,1.125A2.008,2.008,0,0,0,1183.242,261.922Z" transform="translate(-1127.986 -208.262)" fill="#00b4ff" opacity="0.5"/>
        </g>
      </g>
      <g id="Group_299" data-name="Group 299" transform="translate(0 36.118)" opacity="0.8">
        <path id="Path_671" data-name="Path 671" d="M1160.967,296.022l-74.681-43.117-.021,7.51,74.681,43.117.021-7.51" transform="translate(-1081.113 -244.727)" fill="#00b4ff"/>
        <path id="Path_672" data-name="Path 672" d="M1158.974,307.048,1120.781,285l-.013,4.611,38.193,22.05.013-4.611" transform="translate(-1079.156 -242.908)" fill="#00b4ff"/>
        <path id="Path_673" data-name="Path 673" d="M1119.183,284.075l-32.932-19.013-.013,4.611,32.932,19.013.013-4.611" transform="translate(-1081.114 -244.038)" fill="#00b4ff"/>
        <path id="Path_674" data-name="Path 674" d="M1157.693,313.865l-14.708-8.492-.013,4.61,14.708,8.492.013-4.611" transform="translate(-1077.897 -241.752)" fill="#00b4ff"/>
        <path id="Path_675" data-name="Path 675" d="M1141.889,304.741l-39.467-22.786-.013,4.611,39.467,22.786.013-4.611" transform="translate(-1080.197 -243.08)" fill="#00b4ff"/>
        <path id="Path_676" data-name="Path 676" d="M1098.925,279.935l-12.7-7.329-.013,4.611,12.7,7.329.013-4.611" transform="translate(-1081.115 -243.61)" fill="#00b4ff"/>
        <path id="Path_677" data-name="Path 677" d="M1157.287,321.173l-7.542-4.354-.013,4.611,7.542,4.354.013-4.611" transform="translate(-1077.514 -241.103)" fill="#00b4ff"/>
        <path id="Path_678" data-name="Path 678" d="M1147.593,315.576l-24.518-14.155-.013,4.611,24.518,14.155.013-4.611" transform="translate(-1079.026 -241.976)" fill="#00b4ff"/>
        <path id="Path_679" data-name="Path 679" d="M1121.5,300.513l-35.294-20.377-.013,4.611,35.294,20.377.013-4.611" transform="translate(-1081.117 -243.183)" fill="#00b4ff"/>
        <path id="Path_680" data-name="Path 680" d="M1108.263,300.411l-22.075-12.745-.013,4.611,22.076,12.745.013-4.611" transform="translate(-1081.118 -242.756)" fill="#00b4ff"/>
        <path id="Path_681" data-name="Path 681" d="M1126.61,311l-16.332-9.429-.013,4.611,16.332,9.429.013-4.611" transform="translate(-1079.752 -241.968)" fill="#00b4ff"/>
        <path id="Path_682" data-name="Path 682" d="M1123.869,267.969l-5.9-3.409,0,.864,5.9,3.409,0-.863" transform="translate(-1079.315 -244.066)" fill="#00b4ff"/>
        <path id="Path_683" data-name="Path 683" d="M1135.044,274.421l-5.9-3.409,0,.864,5.9,3.409,0-.864" transform="translate(-1078.682 -243.7)" fill="#00b4ff"/>
        <path id="Path_684" data-name="Path 684" d="M1101.5,255.057l-5.9-3.409,0,.863,5.9,3.409,0-.864" transform="translate(-1080.583 -244.798)" fill="#00b4ff"/>
        <path id="Path_685" data-name="Path 685" d="M1112.68,261.509l-5.9-3.409,0,.864,5.9,3.409,0-.864" transform="translate(-1079.95 -244.433)" fill="#00b4ff"/>
        <path id="Path_686" data-name="Path 686" d="M1146.22,280.873l-5.9-3.409,0,.864,5.9,3.409,0-.863" transform="translate(-1078.048 -243.335)" fill="#00b4ff"/>
        <path id="Path_687" data-name="Path 687" d="M1082.266,249.138l-.751-.434-.019,6.785.752.434.019-6.785" transform="translate(-1081.383 -244.965)" fill="#00b4ff"/>
        <path id="Path_688" data-name="Path 688" d="M1157.4,287.325l-5.9-3.409,0,.863,5.9,3.409,0-.864" transform="translate(-1077.415 -242.969)" fill="#00b4ff"/>
        <path id="Path_689" data-name="Path 689" d="M1162.259,318.372l-.738-.426-.019,6.785.738.426.019-6.785" transform="translate(-1076.847 -241.039)" fill="#00b4ff"/>
        <path id="Path_690" data-name="Path 690" d="M1148.384,334.041l-5.9-3.409,0,.863,5.9,3.409,0-.863" transform="translate(-1077.925 -240.32)" fill="#00b4ff"/>
        <path id="Path_691" data-name="Path 691" d="M1137.209,327.589l-5.9-3.409,0,.863,5.9,3.409,0-.863" transform="translate(-1078.559 -240.686)" fill="#00b4ff"/>
        <path id="Path_692" data-name="Path 692" d="M1159.56,340.494l-5.9-3.409,0,.863,5.945,3.432-.038-.887" transform="translate(-1077.292 -239.954)" fill="#00b4ff"/>
        <path id="Path_693" data-name="Path 693" d="M1162.215,292.492l-.711-.164a4.38,4.38,0,0,1,.092.81l-.017,5.9.738.427.017-5.906a5.022,5.022,0,0,0-.118-1.073" transform="translate(-1076.847 -242.492)" fill="#00b4ff"/>
        <path id="Path_694" data-name="Path 694" d="M1126.033,321.137l-5.9-3.409,0,.863,5.9,3.409,0-.863" transform="translate(-1079.193 -241.052)" fill="#00b4ff"/>
        <path id="Path_695" data-name="Path 695" d="M1162.223,331.214l-.738-.426-.019,6.785.738.426.019-6.785" transform="translate(-1076.849 -240.311)" fill="#00b4ff"/>
        <path id="Path_696" data-name="Path 696" d="M1162.3,305.531l-.738-.426-.019,6.785.738.426.019-6.785" transform="translate(-1076.845 -241.767)" fill="#00b4ff"/>
        <path id="Path_697" data-name="Path 697" d="M1082.23,261.979l-.751-.434-.019,6.785.752.434.019-6.785" transform="translate(-1081.385 -244.237)" fill="#00b4ff"/>
        <path id="Path_698" data-name="Path 698" d="M1082.157,287.663l-.751-.434-.017,5.922a4.982,4.982,0,0,0,.118,1.057l.711.164a4.132,4.132,0,0,1-.078-.787l.017-5.921" transform="translate(-1081.389 -242.781)" fill="#00b4ff"/>
        <path id="Path_699" data-name="Path 699" d="M1084.428,245.212l-.08-.046.079.463v-.416" transform="translate(-1081.221 -245.166)" fill="#00b4ff"/>
        <path id="Path_700" data-name="Path 700" d="M1082.194,274.821l-.751-.434-.02,6.785.752.434.019-6.785" transform="translate(-1081.387 -243.509)" fill="#00b4ff"/>
        <path id="Path_701" data-name="Path 701" d="M1103.669,308.225l-5.9-3.409,0,.863,5.905,3.409,0-.863" transform="translate(-1080.461 -241.784)" fill="#00b4ff"/>
        <path id="Path_702" data-name="Path 702" d="M1090.329,248.6l-5.9-3.394.011.856,5.891,3.4,0-.863" transform="translate(-1081.217 -245.163)" fill="#00b4ff"/>
        <path id="Path_703" data-name="Path 703" d="M1114.845,314.677l-5.9-3.409,0,.863,5.9,3.409,0-.863" transform="translate(-1079.827 -241.418)" fill="#00b4ff"/>
        <path id="Path_704" data-name="Path 704" d="M1092.493,301.773l-5.9-3.409,0,.863,5.9,3.409,0-.863" transform="translate(-1081.094 -242.15)" fill="#00b4ff"/>
      </g>
    </g>
  </g>
</svg>
