<svg xmlns="http://www.w3.org/2000/svg" xmlns:xlink="http://www.w3.org/1999/xlink" width="230" height="160" viewBox="0 0 230 160">
  <defs>
    <clipPath id="clip-path">
      <rect id="Rectangle_26" data-name="Rectangle 26" width="230" height="160" transform="translate(503 2689)" fill="none"/>
    </clipPath>
  </defs>
  <g id="Mask_Group_7" data-name="Mask Group 7" transform="translate(-503 -2689)" clip-path="url(#clip-path)">
    <g id="Group_305" data-name="Group 305" transform="translate(167.534 2457.04)">
      <path id="Path_715" data-name="Path 715" d="M511.269,483.5a60.143,60.143,0,0,0,11.28,4.515L536.912,426.4h63.532a60.7,60.7,0,0,0-1.793-11.947H527.06Z" transform="translate(-89.095 -117.492)" fill="#fff"/>
      <path id="Path_716" data-name="Path 716" d="M592.967,460.021l-13.9,61.061a61.7,61.7,0,0,0,11.487.186l14.313-61.247Z" transform="translate(-135.273 -148.531)" fill="#fff"/>
      <path id="Path_717" data-name="Path 717" d="M423.656,362.258H492.4l-1.362,5.939h12.016l4.219-17.861H430.308A60.831,60.831,0,0,0,423.656,362.258Z" transform="translate(-29.419 -73.82)" fill="#fff"/>
      <path id="Path_718" data-name="Path 718" d="M450.466,241.96a70,70,0,1,0,70,70A70.089,70.089,0,0,0,450.466,241.96Zm-6.675,130.591c-40.615-4.441-65.523-47.1-49.342-84.624a60.957,60.957,0,1,1,49.342,84.624Z" transform="translate(0 0)" fill="#fff"/>
    </g>
  </g>
</svg>
